<?xml version="1.0" encoding="UTF-8" standalone="no"?>
<!DOCTYPE svg PUBLIC "-//W3C//DTD SVG 1.1//EN" "http://www.w3.org/Graphics/SVG/1.1/DTD/svg11.dtd">
<!--Generated by Intaglio, www.PurgatoryDesign.com-->
<svg version="1.1" viewBox="30,104,525,514" width="525" height="514" xmlns="http://www.w3.org/2000/svg" xmlns:xlink="http://www.w3.org/1999/xlink"><g><path fill="none" stroke="#000" d="M539.114,354.491 C535.519,215.252,419.73,105.291,280.491,108.886 C141.252,112.481,31.2907,228.27,34.8856,367.509 C38.4806,506.748,154.27,616.709,293.509,613.114 C427.649,609.651,535.59,501.758,539.112,367.619"/><path fill="none" stroke="#000" d="M542.754,375.863 C541.652,373.066,540.326,370.367,539.112,367.619 C537.663,370.199,536.323,372.84,534.77,375.36"/></g><g><path fill="none" stroke="#000" d="M313,354 C309.134,339.589,294.318,331.041,279.907,334.907 C265.496,338.773,256.947,353.589,260.813,368 C264.679,382.411,279.496,390.959,293.907,387.093 C303.561,384.504,310.996,376.795,313.236,367.054"/><path fill="none" stroke="#000" d="M313.304,344.722 C313.726,347.802,313.647,350.957,313,354 C311.121,351.842,308.869,349.995,306.337,348.654"/></g><g><path fill="none" stroke="#000" d="M313.812,367 L539.5,367"/><path fill="none" stroke="#000" d="M321.812,371 L313.812,367 L321.812,363"/></g><g><path fill="none" stroke="#000" d="M313,354.5 L538.562,354.5"/><path fill="none" stroke="#000" d="M530.562,350.5 L538.562,354.5 L530.562,358.5"/></g><g><path fill="none" stroke="#000" d="M34.8,360.25 L34.8,364.469"/><path fill="none" stroke="#000" d="M38.8,356.469 L34.8,364.469 L30.8,356.469"/></g><g><path fill="none" stroke="#000" d="M288.945,108.8 L284.195,108.8"/><path fill="none" stroke="#000" d="M292.195,112.8 L284.195,108.8 L292.195,104.8"/></g><g><path fill="none" stroke="#000" d="M287.25,613.2 L292.707,613.2"/><path fill="none" stroke="#000" d="M284.707,609.2 L292.707,613.2 L284.707,617.2"/></g><path fill="#000" stroke="#000" d="M289.498,361 C289.498,362.403,288.361,363.541,286.957,363.541 C285.554,363.541,284.416,362.403,284.416,361 C284.416,359.597,285.554,358.459,286.957,358.459 C288.361,358.459,289.498,359.597,289.498,361 Z"/><text fill="#000" font-family="Geneva" font-size="18" transform="matrix(1,0,-0,1,274.75,355.25)" xml:space="preserve"><tspan>0</tspan></text><text fill="#000" font-family="Geneva" font-size="20" transform="matrix(1,0,-0,1,542.5,354.25)" xml:space="preserve"><tspan>ρ</tspan></text></svg>
