<?xml version="1.0" encoding="UTF-8" standalone="no"?>
<!DOCTYPE svg PUBLIC "-//W3C//DTD SVG 1.1//EN" "http://www.w3.org/Graphics/SVG/1.1/DTD/svg11.dtd">
<!--Generated by Intaglio, www.PurgatoryDesign.com-->
<svg version="1.1" viewBox="12,100,528,358" width="528" height="358" xmlns="http://www.w3.org/2000/svg" xmlns:xlink="http://www.w3.org/1999/xlink"><path fill="none" stroke="#000" d="M35,120 L35,434"/><path fill="none" stroke="#000" d="M35,434 L526,434"/><path fill="none" stroke="#000" d="M35,172 L108,172 L108,434 L35,434 Z"/><path fill="none" stroke="#000" d="M108,210 L181,210 L181,434 L108,434 Z"/><path fill="none" stroke="#000" d="M181,244 L254,244 L254,434 L181,434 Z"/><path fill="none" stroke="#000" d="M254,277 L327,277 L327,434 L254,434 Z"/><path fill="none" stroke="#000" d="M327,311 L400,311 L400,434 L327,434 Z"/><path fill="none" stroke="#000" d="M400,343 L473,343 L473,434 L400,434 Z"/><path fill="none" stroke="#000" d="M35,196 L416.75,434"/><path fill="none" stroke="#000" d="M28,196 L41,196"/><path fill="none" stroke="#000" d="M28,434 L41,434"/><text fill="#000" font-family="Baskerville" font-weight="600" font-size="18" transform="matrix(1,0,-0,1,30,456)" xml:space="preserve"><tspan>0</tspan></text><text fill="#000" font-family="Baskerville" font-weight="600" font-size="18" transform="matrix(1,0,-0,1,13,176)" xml:space="preserve"><tspan>P</tspan></text><text fill="#000" font-family="Baskerville" font-weight="600" font-size="13" transform="matrix(1,0,-0,1,22.5,182)" xml:space="preserve"><tspan>0</tspan></text><text fill="#000" font-family="Baskerville" font-weight="600" font-size="18" transform="matrix(1,0,-0,1,112.25,228)" xml:space="preserve"><tspan>P</tspan></text><text fill="#000" font-family="Baskerville" font-weight="600" font-size="13" transform="matrix(1,0,-0,1,121.75,234)" xml:space="preserve"><tspan>1</tspan></text><text fill="#000" font-family="Baskerville" font-weight="600" font-size="18" transform="matrix(1,0,-0,1,185.25,262)" xml:space="preserve"><tspan>P</tspan></text><text fill="#000" font-family="Baskerville" font-weight="600" font-size="13" transform="matrix(1,0,-0,1,194.75,268)" xml:space="preserve"><tspan>2</tspan></text><text fill="#000" font-family="Baskerville" font-weight="600" font-size="18" transform="matrix(1,0,-0,1,403.25,360)" xml:space="preserve"><tspan>P</tspan></text><text fill="#000" font-family="Baskerville" font-weight="600" font-size="13" transform="matrix(1,0,-0,1,412.75,366)" xml:space="preserve"><tspan>k</tspan></text><text fill="#000" font-family="Baskerville" font-weight="600" font-size="18" transform="matrix(1,0,-0,1,15,300.5)" xml:space="preserve"><tspan>h</tspan></text><text fill="#000" font-family="Baskerville" font-weight="600" font-size="18" transform="matrix(1,0,-0,1,505,454)" xml:space="preserve"><tspan>x</tspan><tspan font-size="14"> = </tspan><tspan>r</tspan></text><path fill="#000" stroke="#000" d="M109.75,209.75 C109.75,210.716,108.966,211.5,108,211.5 C107.034,211.5,106.25,210.716,106.25,209.75 C106.25,208.784,107.034,208,108,208 C108.966,208,109.75,208.784,109.75,209.75 Z"/><path fill="#000" stroke="#000" d="M37.75,172.75 C37.75,173.716,36.9665,174.5,36,174.5 C35.0335,174.5,34.25,173.716,34.25,172.75 C34.25,171.784,35.0335,171,36,171 C36.9665,171,37.75,171.784,37.75,172.75 Z"/><path fill="#000" stroke="#000" d="M182.75,242.75 C182.75,243.716,181.966,244.5,181,244.5 C180.034,244.5,179.25,243.716,179.25,242.75 C179.25,241.784,180.034,241,181,241 C181.966,241,182.75,241.784,182.75,242.75 Z"/><path fill="#000" stroke="#000" d="M255.75,276.75 C255.75,277.716,254.966,278.5,254,278.5 C253.034,278.5,252.25,277.716,252.25,276.75 C252.25,275.784,253.034,275,254,275 C254.966,275,255.75,275.784,255.75,276.75 Z"/><path fill="#000" stroke="#000" d="M328.75,310.75 C328.75,311.716,327.966,312.5,327,312.5 C326.034,312.5,325.25,311.716,325.25,310.75 C325.25,309.784,326.034,309,327,309 C327.966,309,328.75,309.784,328.75,310.75 Z"/><path fill="#000" stroke="#000" d="M401.75,342.75 C401.75,343.716,400.966,344.5,400,344.5 C399.034,344.5,398.25,343.716,398.25,342.75 C398.25,341.784,399.034,341,400,341 C400.966,341,401.75,341.784,401.75,342.75 Z"/><text fill="#000" font-family="Baskerville" font-weight="600" font-size="18" transform="matrix(1,0,-0,1,103.5,456)" xml:space="preserve"><tspan>1</tspan></text><text fill="#000" font-family="Baskerville" font-weight="600" font-size="18" transform="matrix(1,0,-0,1,176.5,456)" xml:space="preserve"><tspan>2</tspan></text><text fill="#000" font-family="Baskerville" font-weight="600" font-size="18" transform="matrix(1,0,-0,1,281.5,452)" xml:space="preserve"><tspan>...</tspan></text><text fill="#000" font-family="Baskerville" font-weight="600" font-size="18" transform="matrix(1,0,-0,1,395.5,456)" xml:space="preserve"><tspan>k</tspan></text><text fill="#000" font-family="Baskerville" font-weight="600" font-size="18" transform="matrix(1,0,-0,1,15,111)" xml:space="preserve"><tspan>y</tspan><tspan font-size="14"> = </tspan><tspan>t</tspan></text><text fill="#000" font-family="Baskerville" font-weight="600" font-size="13" transform="matrix(1,0,-0,1,48.5,117)" xml:space="preserve"><tspan>n+r</tspan></text></svg>
