<?xml version="1.0" encoding="UTF-8" standalone="no"?>
<!DOCTYPE svg PUBLIC "-//W3C//DTD SVG 1.1//EN" "http://www.w3.org/Graphics/SVG/1.1/DTD/svg11.dtd">
<!--Generated by Intaglio, www.PurgatoryDesign.com-->
<svg version="1.1" viewBox="40,152,311,289" width="311" height="289" xmlns="http://www.w3.org/2000/svg" xmlns:xlink="http://www.w3.org/1999/xlink"><path fill="none" stroke="#000" d="M109,152 L109,397"/><path fill="none" stroke="#000" d="M109,397 L351,397"/><path fill="none" stroke="#000" d="M325,386 L325,395"/><path fill="none" stroke="#000" d="M110.5,181 L119.5,181"/><path fill="none" stroke="#000" d="M109,181 L325,397"/><path fill="none" stroke="#000" stroke-width="3" stroke-dasharray="0.1,1" d="M125.75,197.75 L125.75,381.458 Z"/><path fill="none" stroke="#000" stroke-width="3" stroke-dasharray="0.1,1" d="M125.75,381.458 L309.458,381.458 Z"/><path fill="none" stroke="#000" stroke-width="3" stroke-dasharray="0.1,1" d="M125.75,197.75 L309.458,381.458 Z"/><path fill="none" stroke="#000" stroke-width="2" stroke-dasharray="0.1,1" d="M125.75,381.458 L125.75,423 Z"/><path fill="none" stroke="#000" stroke-width="2" stroke-dasharray="0.1,1" d="M309,381.229 L309,423 Z"/><path fill="none" stroke="#000" stroke-width="2" stroke-dasharray="0.1,1" d="M92,197.75 L125.75,197.75 Z"/><path fill="none" stroke="#000" stroke-width="2" stroke-dasharray="0.1,1" d="M92,381.229 L125.771,381.229 Z"/><text fill="#000" font-family="Baskerville" font-weight="600" font-size="18" transform="matrix(1,0,-0,1,325,417)" xml:space="preserve"><tspan>1</tspan></text><text fill="#000" font-family="Baskerville" font-weight="600" font-size="18" transform="matrix(1,0,-0,1,92,181)" xml:space="preserve"><tspan>1</tspan></text><text fill="#000" font-family="Baskerville" font-weight="600" font-size="18" transform="matrix(1,0,-0,1,96,408)" xml:space="preserve"><tspan>0</tspan></text><text fill="#000" font-family="Baskerville" font-weight="600" font-size="18" transform="matrix(1,0,-0,1,121.25,439)" xml:space="preserve"><tspan>δ</tspan></text><text fill="#000" font-family="Baskerville" font-weight="600" font-size="18" transform="matrix(1,0,-0,1,76.5,387.229)" xml:space="preserve"><tspan>δ</tspan></text><text fill="#000" font-family="Baskerville" font-weight="600" font-size="18" transform="matrix(1,0,-0,1,290.5,439)" xml:space="preserve"><tspan>1 – δ</tspan></text><text fill="#000" font-family="Baskerville" font-weight="600" font-size="18" transform="matrix(1,0,-0,1,49.5,201.75)" xml:space="preserve"><tspan>1 – δ</tspan></text><path fill="none" stroke="#000" stroke-width="3" stroke-dasharray="0.1,1" d="M125.75,211 L294,381.229 Z"/><path fill="none" stroke="#000" stroke-width="2" stroke-dasharray="0.1,1" d="M293,383.115 L293,404 Z"/><path fill="none" stroke="#000" stroke-width="2" stroke-dasharray="0.1,1" d="M92,213 L123.875,213 Z"/><text fill="#000" font-family="Baskerville" font-weight="600" font-size="18" transform="matrix(1,0,-0,1,256.5,418)" xml:space="preserve"><tspan>1 – 2δ</tspan></text><text fill="#000" font-family="Baskerville" font-weight="600" font-size="18" transform="matrix(1,0,-0,1,40.5,220)" xml:space="preserve"><tspan>1 – 2δ</tspan></text><path fill="none" stroke="#000" d="M176,244 L199,235"/><path fill="none" stroke="#000" d="M188.5,271.5 L211.5,262.5"/><text fill="#000" font-family="Baskerville" font-style="italic" font-weight="600" font-size="18" transform="matrix(1,0,-0,1,206,236)" xml:space="preserve"><tspan>x + y</tspan></text><text fill="#000" font-family="Baskerville" font-style="italic" font-weight="600" font-size="18" transform="matrix(1,0,-0,1,219,261.5)" xml:space="preserve"><tspan>x + y</tspan></text><text fill="#000" font-family="Baskerville" font-weight="600" font-size="18" transform="matrix(1,0,-0,1,264,262)" xml:space="preserve"><tspan>= 1 – δ</tspan></text><text fill="#000" font-family="Baskerville" font-weight="600" font-size="18" transform="matrix(1,0,-0,1,251,236)" xml:space="preserve"><tspan>= 1</tspan></text></svg>
