<?xml version="1.0" encoding="UTF-8" standalone="no"?>
<!DOCTYPE svg PUBLIC "-//W3C//DTD SVG 1.1//EN" "http://www.w3.org/Graphics/SVG/1.1/DTD/svg11.dtd">
<!--Generated by Intaglio, www.PurgatoryDesign.com-->
<svg version="1.1" viewBox="50,51,495,411" width="495" height="411" xmlns="http://www.w3.org/2000/svg" xmlns:xlink="http://www.w3.org/1999/xlink"><g><path fill="none" stroke="#000" d="M288.5,323.5 L541,323.5"/><path fill="#000" d="M544.5,323.5 C544.5,325.433,542.933,327,541,327 C539.067,327,537.5,325.433,537.5,323.5 C537.5,321.567,539.067,320,541,320 C542.933,320,544.5,321.567,544.5,323.5"/></g><g><path fill="none" stroke="#000" d="M288.5,323.5 L102,232"/><path fill="#000" d="M98.8578,230.458 C99.7092,228.723,101.806,228.006,103.542,228.858 C105.277,229.709,105.994,231.806,105.142,233.542 C104.291,235.277,102.194,235.994,100.458,235.142 C98.723,234.291,98.0064,232.194,98.8578,230.458"/></g><g><path fill="none" stroke="#000" d="M288.5,323.5 L183,449"/><path fill="#000" d="M180.748,451.679 C179.268,450.435,179.077,448.227,180.321,446.748 C181.565,445.268,183.773,445.077,185.252,446.321 C186.732,447.565,186.923,449.773,185.679,451.252 C184.435,452.732,182.227,452.923,180.748,451.679"/></g><g><path fill="none" stroke="#000" d="M288.5,323.5 L364,114"/><path fill="#000" d="M365.187,110.707 C367.005,111.363,367.948,113.368,367.293,115.187 C366.637,117.005,364.632,117.948,362.813,117.293 C360.995,116.637,360.052,114.632,360.707,112.813 C361.363,110.995,363.368,110.052,365.187,110.707"/></g><path fill="none" stroke="#000" d="M51,337.389 L198,460.963"/><path fill="none" stroke="#000" d="M191,51.97 L51,337.325"/><path fill="none" stroke="#000" d="M540.5,178.196 L191,52.2422"/><path fill="none" stroke="#000" d="M540.5,359.953 L540.5,178.736"/><g><path fill="none" stroke="#000" d="M288.5,323.5 L318.25,424.852"/><path fill="#000" d="M319.236,428.21 C317.381,428.754,315.436,427.692,314.892,425.837 C314.347,423.983,315.409,422.038,317.264,421.493 C319.119,420.949,321.064,422.011,321.608,423.866 C322.153,425.721,321.091,427.666,319.236,428.21"/></g><path fill="none" stroke="#000" d="M197.5,460.488 L540,359.953"/><text fill="#000" font-family="Baskerville" font-weight="600" font-size="18" transform="matrix(1,0,-0,1,283,312.625)" xml:space="preserve"><tspan>0</tspan></text><path fill="none" stroke="#000" d="M288.5,323.5 L514,194.648"/><path fill="none" stroke="#000" d="M526,251.858 C526,325.114,468.357,384.5,397.25,384.5 C326.143,384.5,268.5,325.114,268.5,251.858 C268.5,178.602,326.143,119.217,397.25,119.217 C468.357,119.217,526,178.602,526,251.858 Z"/><text fill="#000" font-family="Baskerville" font-weight="600" font-size="18" transform="matrix(1,0,-0,1,496.25,193.125)" xml:space="preserve"><tspan>ζ</tspan></text><path fill="none" stroke="#000" d="M532.875,252.49 C532.875,329.409,472.35,391.764,397.688,391.764 C323.026,391.764,262.5,329.409,262.5,252.49 C262.5,175.572,323.026,113.217,397.688,113.217 C472.35,113.217,532.875,175.572,532.875,252.49 Z"/><path fill="#000" stroke="#000" d="M511.25,192.96 L514.875,192.96 L514.875,196.585 L511.25,196.585 Z"/><text fill="#000" font-family="Baskerville" font-weight="600" font-size="18" transform="matrix(1,0,-0,1,294.875,144.467)" xml:space="preserve"><tspan>C</tspan></text><g><path fill="none" stroke="#000" d="M270.25,158.75 L286.75,171.75"/><path fill="none" stroke="#000" d="M282.942,163.657 L286.75,171.75 L277.991,169.941"/></g><g><path fill="none" stroke="#000" d="M308.5,189.25 L292,176.25"/><path fill="none" stroke="#000" d="M295.808,184.343 L292,176.25 L300.759,178.059"/></g><text fill="#000" font-family="Baskerville" font-weight="600" font-size="18" transform="matrix(1,0,-0,1,267.5,178.25)" xml:space="preserve"><tspan>δ</tspan></text></svg>
