<?xml version="1.0" encoding="UTF-8" standalone="no"?>
<!DOCTYPE svg PUBLIC "-//W3C//DTD SVG 1.1//EN" "http://www.w3.org/Graphics/SVG/1.1/DTD/svg11.dtd">
<!--Generated by Intaglio, www.PurgatoryDesign.com-->
<svg version="1.1" viewBox="50,51,495,458" width="495" height="458" xmlns="http://www.w3.org/2000/svg" xmlns:xlink="http://www.w3.org/1999/xlink"><path fill="none" stroke="#000" d="M394,323.5 C394,381.766,346.766,429,288.5,429 C230.234,429,183,381.766,183,323.5 C183,265.234,230.234,218,288.5,218 C346.766,218,394,265.234,394,323.5 Z"/><g><path fill="none" stroke="#000" d="M288.5,323.5 L541,323.5"/><path fill="#000" d="M544.5,323.5 C544.5,325.433,542.933,327,541,327 C539.067,327,537.5,325.433,537.5,323.5 C537.5,321.567,539.067,320,541,320 C542.933,320,544.5,321.567,544.5,323.5"/></g><g><path fill="none" stroke="#000" d="M288.5,323.5 L102,232"/><path fill="#000" d="M98.8578,230.458 C99.7092,228.723,101.806,228.006,103.542,228.858 C105.277,229.709,105.994,231.806,105.142,233.542 C104.291,235.277,102.194,235.994,100.458,235.142 C98.723,234.291,98.0064,232.194,98.8578,230.458"/></g><g><path fill="none" stroke="#000" d="M288.5,323.5 L183,449"/><path fill="#000" d="M180.748,451.679 C179.268,450.435,179.077,448.227,180.321,446.748 C181.565,445.268,183.773,445.077,185.252,446.321 C186.732,447.565,186.923,449.773,185.679,451.252 C184.435,452.732,182.227,452.923,180.748,451.679"/></g><g><path fill="none" stroke="#000" d="M288.5,323.5 L364,114"/><path fill="#000" d="M365.187,110.707 C367.005,111.363,367.948,113.368,367.293,115.187 C366.637,117.005,364.632,117.948,362.813,117.293 C360.995,116.637,360.052,114.632,360.707,112.813 C361.363,110.995,363.368,110.052,365.187,110.707"/></g><g><path fill="none" stroke="#000" d="M288.698,323.155 L405.597,476.834"/><path fill="#000" d="M407.716,479.62 C406.177,480.79,403.981,480.491,402.811,478.953 C401.641,477.414,401.939,475.218,403.478,474.048 C405.016,472.878,407.212,473.176,408.382,474.715 C409.552,476.253,409.254,478.449,407.716,479.62"/></g><path fill="none" stroke="#000" d="M51,337.389 L198,460.963"/><path fill="none" stroke="#000" d="M191,51.97 L51,337.325"/><path fill="none" stroke="#000" d="M540.5,178.196 L191,52.2422"/><path fill="none" stroke="#000" d="M540.5,359.953 L540.5,178.736"/><path fill="none" stroke="#000" d="M365,508.021 L448,444.886"/><g><path fill="none" stroke="#000" d="M288.5,323.5 L318.25,424.852"/><path fill="#000" d="M319.236,428.21 C317.381,428.754,315.436,427.692,314.892,425.837 C314.347,423.983,315.409,422.038,317.264,421.493 C319.119,420.949,321.064,422.011,321.608,423.866 C322.153,425.721,321.091,427.666,319.236,428.21"/></g><path fill="none" stroke="#000" d="M197.5,460.488 L540,359.953"/><text fill="#000" font-family="Geneva" font-size="18" transform="matrix(1,0,-0,1,277,313.5)" xml:space="preserve"><tspan>0</tspan></text></svg>
