<?xml version="1.0" encoding="UTF-8" standalone="no"?>
<!DOCTYPE svg PUBLIC "-//W3C//DTD SVG 1.1//EN" "http://www.w3.org/Graphics/SVG/1.1/DTD/svg11.dtd">
<!--Generated by Intaglio, www.PurgatoryDesign.com-->
<svg version="1.1" viewBox="50,51,495,411" width="495" height="411" xmlns="http://www.w3.org/2000/svg" xmlns:xlink="http://www.w3.org/1999/xlink"><g><path fill="none" stroke="#000" d="M288.5,323.5 L541,323.5"/><path fill="#000" d="M544.5,323.5 C544.5,325.433,542.933,327,541,327 C539.067,327,537.5,325.433,537.5,323.5 C537.5,321.567,539.067,320,541,320 C542.933,320,544.5,321.567,544.5,323.5"/></g><g><path fill="none" stroke="#000" d="M288.5,323.5 L102,232"/><path fill="#000" d="M98.8578,230.458 C99.7092,228.723,101.806,228.006,103.542,228.858 C105.277,229.709,105.994,231.806,105.142,233.542 C104.291,235.277,102.194,235.994,100.458,235.142 C98.723,234.291,98.0064,232.194,98.8578,230.458"/></g><g><path fill="none" stroke="#000" d="M288.5,323.5 L183,449"/><path fill="#000" d="M180.748,451.679 C179.268,450.435,179.077,448.227,180.321,446.748 C181.565,445.268,183.773,445.077,185.252,446.321 C186.732,447.565,186.923,449.773,185.679,451.252 C184.435,452.732,182.227,452.923,180.748,451.679"/></g><g><path fill="none" stroke="#000" d="M288.5,323.5 L364,114"/><path fill="#000" d="M365.187,110.707 C367.005,111.363,367.948,113.368,367.293,115.187 C366.637,117.005,364.632,117.948,362.813,117.293 C360.995,116.637,360.052,114.632,360.707,112.813 C361.363,110.995,363.368,110.052,365.187,110.707"/></g><path fill="none" stroke="#000" d="M51,337.389 L198,460.963"/><path fill="none" stroke="#000" d="M191,51.97 L51,337.325"/><path fill="none" stroke="#000" d="M540.5,178.196 L191,52.2422"/><path fill="none" stroke="#000" d="M540.5,359.953 L540.5,178.736"/><g><path fill="none" stroke="#000" d="M288.5,323.5 L318.25,424.852"/><path fill="#000" d="M319.236,428.21 C317.381,428.754,315.436,427.692,314.892,425.837 C314.347,423.983,315.409,422.038,317.264,421.493 C319.119,420.949,321.064,422.011,321.608,423.866 C322.153,425.721,321.091,427.666,319.236,428.21"/></g><path fill="none" stroke="#000" d="M197.5,460.488 L540,359.953"/><text fill="#000" font-family="Baskerville" font-weight="600" font-size="18" transform="matrix(1,0,-0,1,283,312.625)" xml:space="preserve"><tspan>0</tspan></text><path fill="none" stroke="#000" d="M288.5,323.5 L514,194.648"/><path fill="none" stroke="#000" d="M529.562,258.442 C529.562,331.698,471.919,391.083,400.813,391.083 C329.706,391.083,272.063,331.698,272.063,258.442 C272.063,185.186,329.706,125.8,400.813,125.8 C471.919,125.8,529.562,185.186,529.562,258.442 Z"/><text fill="#000" font-family="Baskerville" font-weight="600" font-size="18" transform="matrix(1,0,-0,1,472.25,193.125)" xml:space="preserve"><tspan>P=ζ</tspan></text><path fill="none" stroke="#000" d="M536.438,259.074 C536.438,335.993,475.912,398.348,401.25,398.348 C326.588,398.348,266.062,335.993,266.062,259.074 C266.062,182.155,326.588,119.8,401.25,119.8 C475.912,119.8,536.438,182.155,536.438,259.074 Z"/><path fill="#000" stroke="#000" d="M511.25,192.96 L514.875,192.96 L514.875,196.585 L511.25,196.585 Z"/><text fill="#000" font-family="Baskerville" font-weight="600" font-size="18" transform="matrix(1,0,-0,1,298.438,151.05)" xml:space="preserve"><tspan>C</tspan></text><g><path fill="none" stroke="#000" d="M273.812,165.333 L290.312,178.333"/><path fill="none" stroke="#000" d="M286.504,170.24 L290.312,178.333 L281.553,176.524"/></g><g><path fill="none" stroke="#000" d="M312.062,195.833 L295.562,182.833"/><path fill="none" stroke="#000" d="M299.371,190.926 L295.562,182.833 L304.322,184.642"/></g><text fill="#000" font-family="Baskerville" font-weight="600" font-size="18" transform="matrix(1,0,-0,1,271.062,184.833)" xml:space="preserve"><tspan>δ</tspan></text><path fill="#fff" stroke="#000" d="M402.625,259.074 C402.625,259.833,402.009,260.449,401.25,260.449 C400.491,260.449,399.875,259.833,399.875,259.074 C399.875,258.314,400.491,257.699,401.25,257.699 C402.009,257.699,402.625,258.314,402.625,259.074 Z"/></svg>
